<svg width="238" height="60" viewBox="0 0 238 60" fill="none" xmlns="http://www.w3.org/2000/svg">
<path d="M23.8163 43.0357H20.2988C19.2938 43.0357 18.4563 42.7344 17.7862 42.1317C17.1832 41.4621 16.8817 40.625 16.8817 39.6205V25.9598C16.8817 24.3527 16.3792 23.1808 15.3742 22.4442C14.4362 21.7076 13.3642 21.3393 12.1582 21.3393C10.9521 21.3393 9.88013 21.7076 8.94212 22.4442C8.00411 23.1808 7.5351 24.3527 7.5351 25.9598V43.0357H0.5V27.3661C0.5 22.8125 1.67252 19.7656 4.01755 18.2254C6.42958 16.6853 9.07612 15.8482 11.9572 15.7143C14.9052 15.7143 17.6187 16.4844 20.0978 18.0246C22.5768 19.5647 23.8163 22.6786 23.8163 27.3661V43.0357Z" fill="#100074"/>
<path d="M37.7302 43.125C35.5192 43.2589 33.1071 43.2254 30.4941 43.0246C27.9481 42.8237 26.675 41.183 26.675 38.1027V8.57143H30.2931C31.1641 8.57143 31.9346 8.90625 32.6046 9.57589C33.2746 10.2455 33.6096 11.0491 33.6096 11.9866V16.5067H37.7302V17.9129C37.7302 18.9174 37.3952 19.7545 36.7252 20.4241C36.0552 21.0268 35.2512 21.3281 34.3131 21.3281H33.6096V36.1942C33.6096 37.3326 34.2797 37.9018 35.6197 37.9018H37.7302V43.125Z" fill="#100074"/>
<path d="M57.0711 42.433H49.9355L40.5889 15.7143H48.026L53.3526 34.4978L58.0762 18.125C58.6122 16.5179 59.6842 15.7143 61.2922 15.7143H66.5183L57.0711 42.433Z" fill="#100074"/>
<path d="M92.6933 43.0357H89.1758C88.1707 43.0357 87.3332 42.7344 86.6632 42.1317C86.0602 41.4621 85.7587 40.625 85.7587 39.6205V25.9598C85.7587 24.3527 85.2562 23.1808 84.2512 22.4442C83.3132 21.7076 82.2412 21.3393 81.0351 21.3393C79.8291 21.3393 78.7571 21.7076 77.8191 22.4442C76.8811 23.1808 76.4121 24.3527 76.4121 25.9598V43.0357H69.377V27.3661C69.377 22.8125 70.5495 19.7656 72.8945 18.2254C75.3066 16.6853 77.9531 15.8482 80.8341 15.7143C83.7822 15.7143 86.4957 16.4844 88.9748 18.0246C91.4538 19.5647 92.6933 22.6786 92.6933 27.3661V43.0357Z" fill="#FCBE15"/>
<path d="M114.748 34.7991H119.773C119.036 37.6116 117.629 39.7545 115.552 41.2277C113.475 42.7679 110.862 43.5379 107.713 43.5379C103.894 43.5379 100.912 42.2991 98.7681 39.8214C96.624 37.4107 95.552 33.9621 95.552 29.4754C95.552 25.1897 96.5905 21.8415 98.6676 19.4308C100.812 16.9531 103.793 15.7143 107.612 15.7143C111.632 15.7143 114.748 16.9196 116.959 19.3304C119.103 21.808 120.175 25.2567 120.175 29.6763C120.175 29.9442 120.175 30.1786 120.175 30.3795C120.175 30.5804 120.175 30.7143 120.175 30.7812C120.175 31.1161 120.141 31.3504 120.074 31.4844H102.688C102.755 33.5603 103.257 35.1004 104.195 36.1049C105.066 37.1763 106.373 37.7121 108.115 37.7121C109.254 37.7121 110.225 37.4777 111.029 37.0089C111.23 36.942 111.398 36.8415 111.532 36.7076C111.733 36.5067 111.934 36.3058 112.135 36.1049C112.202 35.904 112.436 35.6362 112.838 35.3013C113.307 34.9665 113.944 34.7991 114.748 34.7991ZM102.688 26.9643H112.939C112.805 25.1562 112.336 23.817 111.532 22.9464C110.661 22.0089 109.421 21.5402 107.813 21.5402C106.339 21.5402 105.133 22.0089 104.195 22.9464C103.257 23.8839 102.755 25.2232 102.688 26.9643Z" fill="#FCBE15"/>
<path d="M152.682 42.433H145.646L141.526 23.3482L137.405 42.433H130.37L123.034 15.7143H129.868L134.089 34.1964L137.908 15.7143H145.043L148.661 34.1964L152.38 18.125C152.782 16.5179 153.854 15.7143 155.596 15.7143H160.018L152.682 42.433Z" fill="#FCBE15"/>
<path d="M162.877 34.1964H169.711C169.778 35.5357 170.28 36.5402 171.218 37.2098C172.223 37.8795 173.563 38.2143 175.238 38.2143C176.445 38.2143 177.483 37.9799 178.354 37.5112C179.158 37.0424 179.56 36.4062 179.56 35.6027C179.56 34.3973 178.153 33.4933 175.339 32.8906C174.133 32.6897 173.228 32.4888 172.625 32.2879C169.074 31.4174 166.696 30.3795 165.49 29.1741C164.15 27.9687 163.48 26.3616 163.48 24.3527C163.48 21.808 164.451 19.6987 166.394 18.0246C168.404 16.4844 171.017 15.7143 174.233 15.7143C177.718 15.7143 180.498 16.4844 182.575 18.0246C184.518 19.6987 185.557 21.875 185.691 24.5536H181.369C180.096 24.5536 179.125 23.9844 178.455 22.846C178.187 22.5781 177.919 22.3103 177.651 22.0424C176.847 21.4397 175.741 21.1384 174.334 21.1384C172.994 21.1384 171.989 21.3393 171.319 21.7411C170.716 22.1429 170.414 22.7455 170.414 23.5491C170.414 24.6205 172.156 25.5246 175.641 26.2612C176.043 26.3951 176.378 26.4955 176.646 26.5625C176.981 26.6295 177.282 26.6629 177.55 26.6629C180.967 27.5335 183.346 28.5379 184.686 29.6763C185.959 30.8817 186.595 32.4888 186.595 34.4978C186.595 37.4442 185.523 39.721 183.379 41.3281C181.369 42.8013 178.354 43.5379 174.334 43.5379C170.515 43.5379 167.667 42.7679 165.791 41.2277C163.848 39.6875 162.877 37.4442 162.877 34.4978V34.1964Z" fill="#FCBE15"/>
<path d="M192.148 38.0408H194.647V42.0816H190.604V39.5837C190.604 38.5551 191.119 38.0408 192.148 38.0408Z" fill="#FBDD2C"/>
<path d="M196.738 22.8735H199.384C200.07 22.8735 200.659 23.1184 201.149 23.6082C201.639 24.098 201.884 24.6857 201.884 25.3714V42.4163H196.738V22.8735ZM196.738 17.1429H199.384C200.07 17.1429 200.659 17.3878 201.149 17.8776C201.639 18.3673 201.884 18.9551 201.884 19.6408V21.1837H196.738V17.1429Z" fill="#FBDD2C"/>
<path d="M217.353 17.1429H219.853C220.539 17.1429 221.127 17.4122 221.617 17.951C222.107 18.4408 222.352 19.0041 222.352 19.6408V33.9673C222.352 37.4449 221.347 39.7959 219.338 41.0204C217.329 42.2449 215.148 42.8571 212.796 42.8571C211.522 42.8571 210.272 42.6612 209.047 42.2694C207.822 41.8286 206.841 41.1429 206.106 40.2122C204.685 38.4 203.975 35.9265 203.975 32.7918C203.975 29.7061 204.685 27.2327 206.106 25.3714C207.577 23.4612 209.463 22.5061 211.767 22.5061C212.992 22.5061 214.07 22.751 215.001 23.2408C215.981 23.8286 216.765 24.5878 217.353 25.5184V17.1429ZM208.973 32.5714C208.973 34.5306 209.341 36.0245 210.076 37.0531C210.811 38.0816 211.865 38.5959 213.237 38.5959C214.56 38.5959 215.589 38.0816 216.324 37.0531C217.01 36.0245 217.353 34.5306 217.353 32.5714C217.353 30.8082 216.986 29.4122 216.251 28.3837C215.467 27.4041 214.413 26.9143 213.09 26.9143C211.816 26.9143 210.811 27.4286 210.076 28.4571C209.341 29.4367 208.973 30.8082 208.973 32.5714Z" fill="#FBDD2C"/>
<path d="M184.932 44.1748C183.457 45.0909 182.992 47.0408 184.057 48.4112C187.374 52.6759 191.795 55.983 196.868 57.9565C202.921 60.3115 209.575 60.6405 215.831 58.8941C222.087 57.1477 227.608 53.4201 231.564 48.271C235.52 43.1219 237.698 36.8292 237.771 30.3376C237.844 23.846 235.808 17.5059 231.969 12.2691C228.13 7.03236 222.695 3.18154 216.48 1.29484C210.264 -0.59186 203.605 -0.412634 197.5 1.80561C192.384 3.66453 187.89 6.87133 184.478 11.0604C183.382 12.4064 183.803 14.3664 185.257 15.3154C186.711 16.2643 188.645 15.8387 189.778 14.5236C192.419 11.459 195.813 9.10646 199.649 7.71259C204.474 5.95909 209.739 5.81741 214.652 7.30883C219.565 8.80025 223.862 11.8443 226.896 15.9839C229.931 20.1235 231.54 25.1353 231.482 30.2669C231.425 35.3984 229.703 40.3728 226.576 44.4431C223.449 48.5134 219.085 51.46 214.139 52.8405C209.194 54.2211 203.934 53.961 199.149 52.0994C195.345 50.6196 192.005 48.1913 189.434 45.068C188.33 43.7278 186.407 43.2588 184.932 44.1748Z" fill="#FBDD2C"/>
</svg>
